<?xml version="1.0" encoding="UTF-8" standalone="no"?>
<!-- Created with Inkscape (http://www.inkscape.org/) -->

<svg
   version="1.1"
   id="svg1"
   width="684.83466"
   height="207.06667"
   viewBox="0 0 684.83466 207.06667"
   sodipodi:docname="DDM Bex_CMYK - Orange.ai"
   xmlns:inkscape="http://www.inkscape.org/namespaces/inkscape"
   xmlns:sodipodi="http://sodipodi.sourceforge.net/DTD/sodipodi-0.dtd"
   xmlns="http://www.w3.org/2000/svg"
   xmlns:svg="http://www.w3.org/2000/svg">
  <defs
     id="defs1" />
  <sodipodi:namedview
     id="namedview1"
     pagecolor="#ffffff"
     bordercolor="#000000"
     borderopacity="0.25"
     inkscape:showpageshadow="2"
     inkscape:pageopacity="0.0"
     inkscape:pagecheckerboard="0"
     inkscape:deskcolor="#d1d1d1">
    <inkscape:page
       x="0"
       y="0"
       inkscape:label="1"
       id="page1"
       width="684.83466"
       height="207.06667"
       margin="34.964134 32.48 35.348 35.6576"
       bleed="0" />
  </sodipodi:namedview>
  <g
     id="layer-MC0"
     inkscape:groupmode="layer"
     inkscape:label="Logos">
    <path
       id="path1"
       d="M 0,0 26.02,3.114 0,6.224 24.516,15.476 -1.491,12.272 20.101,27.123 -4.385,17.787 13.029,37.37 -8.515,22.446 3.703,45.627 -13.642,25.984 l 6.319,25.433 -12.139,-23.228 0.048,26.207 -6.23,-25.457 -3.806,15.568 V 19.508 l 1.337,-5.465 2.544,10.395 -0.02,-10.703 4.958,9.487 -2.577,-10.39 7.079,8.026 -4.99,-9.468 8.801,6.094 -7.113,-8.001 10.001,3.815 -8.819,-6.067 10.623,1.311 -10.014,-3.78 10.625,-1.27 -10.625,-1.268 10.014,-3.783 -10.623,1.312 8.819,-6.065 -10.001,3.81 7.113,-7.998 -8.801,6.096 4.99,-9.469 -7.079,8.021 2.577,-10.386 -4.958,9.487 0.02,-10.705 -2.544,10.401 -1.337,-5.475 v -25.753 l 3.806,15.565 6.23,-25.452 -0.048,26.203 12.139,-23.224 -6.319,25.436 17.345,-19.646 -12.218,23.178 21.544,-14.923 -17.414,19.586 24.486,-9.334 -21.592,14.845 26.007,-3.202 z"
       style="fill:#f47216;fill-opacity:1;fill-rule:nonzero;stroke:none"
       transform="matrix(1.3333333,0,0,-1.3333333,74.924533,107.87533)" />
    <path
       id="path2"
       d="M 0,0 C 0.461,-0.083 0.871,-0.225 1.216,-0.42 1.539,-0.604 1.784,-0.832 1.965,-1.119 2.139,-1.395 2.226,-1.741 2.226,-2.147 2.226,-2.821 1.949,-3.346 1.378,-3.752 0.764,-4.191 -0.11,-4.414 -1.218,-4.414 H -3.55 v 4.425 c 0.14,0.021 0.301,0.041 0.486,0.061 C -2.272,0.155 -1.032,0.188 0,0 m 4.259,-10.192 c -0.171,0.543 -0.396,1.321 -0.669,2.33 -0.194,0.718 -0.51,1.343 -0.942,1.856 -0.19,0.225 -0.404,0.422 -0.641,0.589 0.504,0.248 0.943,0.561 1.312,0.936 0.655,0.661 0.987,1.498 0.987,2.486 0,0.516 -0.111,1.015 -0.332,1.486 C 3.752,-0.041 3.448,0.35 3.081,0.643 2.577,1.073 1.939,1.397 1.186,1.606 0.066,1.918 -1.548,1.98 -3.417,1.832 -4.06,1.783 -4.664,1.711 -5.21,1.617 L -5.63,1.545 v -13.636 h 2.08 v 5.904 h 2.288 c 0.87,0 1.526,-0.195 1.952,-0.579 0.447,-0.402 0.786,-1.026 1.005,-1.847 l 0.557,-2.21 c 0.082,-0.324 0.163,-0.6 0.238,-0.837 0.088,-0.267 0.168,-0.452 0.251,-0.581 l 0.213,-0.332 2.119,0.714 -0.343,0.543 c -0.149,0.238 -0.308,0.616 -0.471,1.124"
       style="fill:#f47216;fill-opacity:1;fill-rule:nonzero;stroke:none"
       transform="matrix(1.3333333,0,0,-1.3333333,139.99813,144.99053)" />
    <path
       id="path3"
       d="M 0,0 H 6.546 V 1.793 H 0 v 3.9 H 6.48 V 7.487 H -2.079 V -6.4 h 9.803 v 1.794 H 0 Z"
       style="fill:#f47216;fill-opacity:1;fill-rule:nonzero;stroke:none"
       transform="matrix(1.3333333,0,0,-1.3333333,152.69267,152.5784)" />
    <path
       id="path4"
       d="M 0,0 H 5.477 V -12.093 H 7.556 V 0 h 5.477 V 1.794 H 0 Z"
       style="fill:#f47216;fill-opacity:1;fill-rule:nonzero;stroke:none"
       transform="matrix(1.3333333,0,0,-1.3333333,163.09893,144.98733)" />
    <path
       id="path5"
       d="m 0,0 c 0.462,-0.085 0.872,-0.226 1.216,-0.42 0.323,-0.184 0.569,-0.413 0.75,-0.7 0.175,-0.278 0.261,-0.614 0.261,-1.028 0,-0.674 -0.277,-1.199 -0.847,-1.605 -0.616,-0.439 -1.491,-0.662 -2.598,-0.662 H -3.549 V 0.01 c 0.138,0.021 0.301,0.041 0.485,0.061 C -2.271,0.154 -1.027,0.186 0,0 m 4.26,-10.191 c -0.174,0.542 -0.396,1.32 -0.67,2.328 -0.192,0.716 -0.507,1.34 -0.941,1.857 -0.189,0.225 -0.404,0.421 -0.642,0.589 0.504,0.248 0.944,0.56 1.313,0.935 0.655,0.662 0.986,1.499 0.986,2.486 0,0.516 -0.111,1.014 -0.331,1.486 C 3.753,-0.042 3.449,0.349 3.081,0.643 2.575,1.073 1.937,1.397 1.187,1.606 0.066,1.917 -1.549,1.98 -3.417,1.831 -4.056,1.783 -4.659,1.711 -5.208,1.617 L -5.629,1.545 v -13.636 h 2.08 v 5.903 h 2.287 c 0.87,0 1.526,-0.194 1.953,-0.578 0.446,-0.402 0.786,-1.026 1.004,-1.846 l 0.557,-2.213 c 0.084,-0.325 0.163,-0.602 0.24,-0.832 0.086,-0.269 0.167,-0.456 0.253,-0.588 l 0.213,-0.328 2.112,0.713 -0.339,0.542 c -0.152,0.243 -0.311,0.622 -0.471,1.127"
       style="fill:#f47216;fill-opacity:1;fill-rule:nonzero;stroke:none"
       transform="matrix(1.3333333,0,0,-1.3333333,190.03973,144.98987)" />
    <path
       id="path6"
       d="M 0,0 1.768,3.87 C 1.903,4.163 2.022,4.434 2.127,4.683 2.229,4.426 2.356,4.134 2.509,3.813 L 4.253,0 Z m 1.313,7.567 -6.346,-13.768 2.155,-0.373 2.054,4.783 H 5.06 l 2.098,-4.782 2.15,0.372 -6.3,13.768 z"
       style="fill:#f47216;fill-opacity:1;fill-rule:nonzero;stroke:none"
       transform="matrix(1.3333333,0,0,-1.3333333,204.67973,152.68453)" />
    <path
       id="path7"
       d="m 165.027,34.466 h 2.081 v 13.887 h -2.081 z"
       style="fill:#f47216;fill-opacity:1;fill-rule:nonzero;stroke:none"
       transform="matrix(1.3333333,0,0,-1.3333333,0,207.06667)" />
    <path
       id="path8"
       d="m 0,0 h 5.478 v -12.093 h 2.08 V 0 h 5.477 V 1.794 H 0 Z"
       style="fill:#f47216;fill-opacity:1;fill-rule:nonzero;stroke:none"
       transform="matrix(1.3333333,0,0,-1.3333333,224.89387,144.98733)" />
    <path
       id="path9"
       d="M 0,0 H 6.546 V 1.793 H 0 v 3.9 H 6.481 V 7.487 H -2.08 V -6.4 h 9.805 v 1.794 H 0 Z"
       style="fill:#f47216;fill-opacity:1;fill-rule:nonzero;stroke:none"
       transform="matrix(1.3333333,0,0,-1.3333333,247.10293,152.5784)" />
    <path
       id="path10"
       d="m 0,0 c -0.387,0.322 -0.865,0.608 -1.422,0.85 -0.532,0.23 -1.151,0.446 -1.845,0.645 -1.111,0.305 -1.905,0.656 -2.36,1.043 -0.393,0.335 -0.585,0.759 -0.585,1.297 0,0.189 0.045,0.388 0.135,0.606 0.089,0.213 0.241,0.415 0.45,0.604 0.218,0.196 0.519,0.361 0.895,0.49 0.39,0.133 0.889,0.201 1.484,0.201 0.669,0 1.239,-0.073 1.69,-0.214 C -0.989,5.34 -0.73,5.216 -0.614,5.143 L -0.154,4.856 0.744,6.552 0.319,6.795 C -0.015,6.987 -0.473,7.151 -1.08,7.296 -2.214,7.566 -3.933,7.621 -5.204,7.243 -5.811,7.06 -6.347,6.799 -6.799,6.468 -7.263,6.127 -7.627,5.719 -7.882,5.252 -8.14,4.777 -8.271,4.256 -8.271,3.702 c 0,-0.99 0.381,-1.825 1.133,-2.483 0.704,-0.616 1.803,-1.127 3.355,-1.558 0.588,-0.171 1.087,-0.349 1.483,-0.527 0.371,-0.17 0.67,-0.359 0.891,-0.562 0.203,-0.188 0.352,-0.396 0.44,-0.614 0.092,-0.236 0.139,-0.509 0.139,-0.811 0,-0.639 -0.264,-1.143 -0.808,-1.54 -0.587,-0.43 -1.429,-0.649 -2.505,-0.649 -0.666,0 -1.291,0.082 -1.86,0.241 -0.575,0.16 -1.087,0.376 -1.521,0.642 l -0.459,0.281 -0.881,-1.667 0.387,-0.252 c 0.246,-0.16 0.532,-0.303 0.873,-0.437 0.333,-0.133 0.687,-0.243 1.055,-0.329 0.365,-0.086 0.743,-0.154 1.135,-0.203 0.391,-0.046 0.774,-0.07 1.14,-0.07 0.92,0 1.733,0.112 2.412,0.332 0.69,0.22 1.272,0.524 1.73,0.903 0.467,0.388 0.815,0.835 1.035,1.331 0.216,0.493 0.326,1.002 0.326,1.512 0,0.592 -0.103,1.12 -0.309,1.569 C 0.715,-0.74 0.405,-0.34 0,0"
       style="fill:#f47216;fill-opacity:1;fill-rule:nonzero;stroke:none"
       transform="matrix(1.3333333,0,0,-1.3333333,271.03907,152.3056)" />
    <path
       id="path11"
       d="m 0,0 c -0.387,0.322 -0.865,0.608 -1.421,0.85 -0.535,0.231 -1.154,0.447 -1.846,0.645 -1.111,0.306 -1.905,0.657 -2.361,1.043 -0.393,0.336 -0.585,0.759 -0.585,1.297 0,0.186 0.044,0.386 0.135,0.607 0.088,0.21 0.24,0.413 0.45,0.602 0.22,0.197 0.521,0.362 0.896,0.49 0.39,0.134 0.89,0.202 1.484,0.202 0.67,0 1.239,-0.073 1.69,-0.214 0.569,-0.181 0.828,-0.306 0.946,-0.379 L -0.152,4.857 0.745,6.553 0.32,6.795 C -0.018,6.988 -0.476,7.151 -1.081,7.296 -2.212,7.566 -3.932,7.62 -5.207,7.243 -5.812,7.059 -6.348,6.798 -6.8,6.468 -7.266,6.124 -7.63,5.715 -7.883,5.251 -8.141,4.774 -8.271,4.253 -8.271,3.702 c 0,-0.99 0.381,-1.825 1.133,-2.483 0.704,-0.617 1.804,-1.127 3.356,-1.558 0.588,-0.171 1.087,-0.349 1.481,-0.527 0.373,-0.17 0.672,-0.359 0.892,-0.563 0.206,-0.189 0.35,-0.391 0.44,-0.615 0.092,-0.235 0.14,-0.507 0.14,-0.809 0,-0.638 -0.264,-1.142 -0.808,-1.54 -0.587,-0.43 -1.43,-0.649 -2.507,-0.649 -0.664,0 -1.29,0.082 -1.859,0.241 -0.576,0.16 -1.087,0.377 -1.52,0.642 l -0.459,0.281 -0.883,-1.667 0.388,-0.252 c 0.247,-0.16 0.533,-0.303 0.873,-0.437 0.333,-0.133 0.688,-0.244 1.055,-0.329 0.366,-0.086 0.743,-0.154 1.135,-0.203 0.391,-0.046 0.774,-0.07 1.14,-0.07 0.919,0 1.731,0.112 2.413,0.332 0.687,0.219 1.268,0.523 1.729,0.903 0.466,0.389 0.814,0.836 1.033,1.331 0.218,0.492 0.328,1 0.328,1.512 0,0.591 -0.104,1.119 -0.309,1.569 C 0.715,-0.74 0.406,-0.341 0,0"
       style="fill:#f47216;fill-opacity:1;fill-rule:nonzero;stroke:none"
       transform="matrix(1.3333333,0,0,-1.3333333,295.62373,152.3056)" />
    <path
       id="path12"
       d="m 0,0 c 0.184,-0.302 0.277,-0.683 0.277,-1.132 0,-0.826 -0.316,-1.45 -0.966,-1.908 -0.693,-0.49 -1.733,-0.738 -3.089,-0.738 -0.409,0 -0.792,0.014 -1.159,0.047 -0.199,0.016 -0.386,0.041 -0.563,0.075 v 4.894 c 0.144,0.016 0.307,0.033 0.49,0.051 0.821,0.075 2.024,0.096 3,-0.09 C -1.535,1.107 -1.119,0.958 -0.774,0.755 -0.446,0.562 -0.192,0.314 0,0 M 0.999,1.872 C 0.509,2.285 -0.132,2.605 -0.904,2.822 -1.65,3.031 -2.552,3.137 -3.583,3.137 -4.285,3.137 -4.942,3.111 -5.534,3.059 -6.134,3.008 -6.67,2.95 -7.143,2.885 L -7.58,2.825 v -13.689 h 2.08 v 5.365 c 0.149,-0.021 0.304,-0.037 0.462,-0.045 0.364,-0.018 0.741,-0.029 1.127,-0.029 1.021,0 1.966,0.126 2.805,0.376 0.869,0.254 1.596,0.64 2.155,1.143 0.867,0.76 1.306,1.782 1.306,3.036 0,0.611 -0.12,1.165 -0.356,1.648 -0.236,0.477 -0.575,0.897 -1,1.242"
       style="fill:#f47216;fill-opacity:1;fill-rule:nonzero;stroke:none"
       transform="matrix(1.3333333,0,0,-1.3333333,311.4896,146.62667)" />
    <path
       id="path13"
       d="m 239.086,34.466 h 2.079 v 13.887 h -2.079 z"
       style="fill:#f47216;fill-opacity:1;fill-rule:nonzero;stroke:none"
       transform="matrix(1.3333333,0,0,-1.3333333,0,207.06667)" />
    <path
       id="path14"
       d="m 0,0 c 0.461,-0.084 0.87,-0.226 1.215,-0.42 0.323,-0.184 0.569,-0.413 0.75,-0.7 0.176,-0.278 0.261,-0.614 0.261,-1.028 0,-0.674 -0.277,-1.199 -0.846,-1.605 -0.617,-0.439 -1.491,-0.662 -2.598,-0.662 H -3.55 v 4.426 c 0.14,0.02 0.302,0.04 0.486,0.06 C -2.273,0.154 -1.034,0.188 0,0 m 4.26,-10.192 c -0.173,0.543 -0.397,1.321 -0.67,2.329 -0.193,0.717 -0.509,1.342 -0.942,1.857 -0.19,0.225 -0.404,0.421 -0.641,0.589 0.503,0.248 0.942,0.56 1.31,0.935 0.657,0.661 0.989,1.498 0.989,2.486 0,0.518 -0.113,1.017 -0.332,1.486 C 3.753,-0.042 3.449,0.349 3.08,0.643 2.576,1.072 1.938,1.396 1.186,1.605 0.068,1.917 -1.546,1.979 -3.419,1.831 -4.06,1.783 -4.662,1.71 -5.21,1.617 L -5.63,1.545 v -13.636 h 2.08 v 5.903 h 2.288 c 0.87,0 1.527,-0.194 1.952,-0.578 0.448,-0.403 0.787,-1.027 1.005,-1.845 l 0.557,-2.213 c 0.082,-0.324 0.163,-0.601 0.238,-0.833 0.085,-0.263 0.168,-0.455 0.252,-0.586 l 0.214,-0.33 2.115,0.713 -0.341,0.543 c -0.152,0.241 -0.31,0.619 -0.47,1.125"
       style="fill:#f47216;fill-opacity:1;fill-rule:nonzero;stroke:none"
       transform="matrix(1.3333333,0,0,-1.3333333,333.0092,144.98987)" />
    <path
       id="path15"
       d="m 257.198,34.466 h 2.08 v 13.887 h -2.08 z"
       style="fill:#f47216;fill-opacity:1;fill-rule:nonzero;stroke:none"
       transform="matrix(1.3333333,0,0,-1.3333333,0,207.06667)" />
    <path
       id="path16"
       d="M 0,0 H 5.476 V -12.093 H 7.557 V 0 h 5.476 V 1.794 H 0 Z"
       style="fill:#f47216;fill-opacity:1;fill-rule:nonzero;stroke:none"
       transform="matrix(1.3333333,0,0,-1.3333333,347.78907,144.98733)" />
    <path
       id="path17"
       d="M 0,0 C 0,-0.787 -0.107,-1.466 -0.316,-2.018 -0.521,-2.558 -0.808,-3.007 -1.165,-3.354 -1.525,-3.7 -1.957,-3.96 -2.45,-4.126 -3.418,-4.453 -4.693,-4.49 -5.723,-4.137 c -0.464,0.159 -0.876,0.409 -1.221,0.743 -0.344,0.335 -0.623,0.782 -0.827,1.328 -0.211,0.558 -0.318,1.253 -0.318,2.066 v 7.937 h -2.079 v -7.958 c 0,-1.121 0.164,-2.083 0.486,-2.86 0.328,-0.789 0.776,-1.436 1.334,-1.923 0.555,-0.486 1.202,-0.842 1.921,-1.057 0.7,-0.213 1.439,-0.321 2.198,-0.321 0.827,0 1.625,0.114 2.371,0.337 0.766,0.231 1.448,0.604 2.029,1.106 0.585,0.505 1.057,1.168 1.401,1.971 0.336,0.793 0.507,1.749 0.507,2.843 V 7.937 L 0,7.937 Z"
       style="fill:#f47216;fill-opacity:1;fill-rule:nonzero;stroke:none"
       transform="matrix(1.3333333,0,0,-1.3333333,380.78133,153.178)" />
    <path
       id="path18"
       d="M 0,0 H 6.545 V 1.793 H 0 v 3.9 H 6.479 V 7.487 H -2.079 V -6.4 h 9.803 v 1.794 H 0 Z"
       style="fill:#f47216;fill-opacity:1;fill-rule:nonzero;stroke:none"
       transform="matrix(1.3333333,0,0,-1.3333333,390.276,152.5784)" />
    <path
       id="path19"
       d="M 0,0 H -5.428 V 12.094 H -7.507 V -1.793 H 1.862 V 1.299 L 0,1.299 Z"
       style="fill:#f47216;fill-opacity:1;fill-rule:nonzero;stroke:none"
       transform="matrix(1.3333333,0,0,-1.3333333,413.83333,158.7204)" />
    <path
       id="path20"
       d="m 0,0 h -5.426 v 12.094 h -2.08 V -1.793 H 1.863 V 1.299 L 0,1.299 Z"
       style="fill:#f47216;fill-opacity:1;fill-rule:nonzero;stroke:none"
       transform="matrix(1.3333333,0,0,-1.3333333,429.54293,158.7204)" />
    <path
       id="path21"
       d="M 0,0 H 6.545 V 1.793 H 0 v 3.9 H 6.48 V 7.487 H -2.081 V -6.4 h 9.805 v 1.794 H 0 Z"
       style="fill:#f47216;fill-opacity:1;fill-rule:nonzero;stroke:none"
       transform="matrix(1.3333333,0,0,-1.3333333,438.02027,152.5784)" />
    <path
       id="path22"
       d="m 0,0 c -0.208,0.452 -0.517,0.852 -0.921,1.188 -0.383,0.321 -0.86,0.607 -1.421,0.851 -0.537,0.231 -1.156,0.447 -1.845,0.644 -1.11,0.306 -1.904,0.657 -2.36,1.044 -0.394,0.334 -0.586,0.758 -0.586,1.296 0,0.189 0.045,0.388 0.138,0.611 0.085,0.207 0.235,0.409 0.446,0.598 0.219,0.197 0.521,0.362 0.898,0.491 0.388,0.133 0.887,0.201 1.483,0.201 0.671,0 1.238,-0.072 1.689,-0.214 0.573,-0.182 0.83,-0.306 0.945,-0.378 L -1.072,6.043 -0.178,7.74 -0.601,7.983 C -0.935,8.176 -1.393,8.34 -2.001,8.485 -3.135,8.755 -4.852,8.81 -6.125,8.431 -6.729,8.248 -7.266,7.988 -7.72,7.656 -8.183,7.315 -8.548,6.907 -8.804,6.44 -9.06,5.967 -9.19,5.446 -9.19,4.89 c 0,-0.989 0.38,-1.824 1.131,-2.483 0.707,-0.617 1.807,-1.127 3.356,-1.557 0.59,-0.173 1.09,-0.351 1.481,-0.528 0.371,-0.169 0.671,-0.358 0.893,-0.562 0.206,-0.189 0.35,-0.392 0.44,-0.616 0.094,-0.235 0.139,-0.5 0.139,-0.808 0,-0.64 -0.264,-1.143 -0.81,-1.541 -0.585,-0.43 -1.426,-0.648 -2.503,-0.648 -0.665,0 -1.291,0.081 -1.862,0.24 -0.573,0.161 -1.085,0.377 -1.519,0.642 l -0.459,0.281 -0.883,-1.667 0.389,-0.252 c 0.247,-0.16 0.534,-0.303 0.873,-0.437 0.334,-0.132 0.688,-0.243 1.054,-0.329 0.366,-0.086 0.743,-0.153 1.136,-0.202 0.396,-0.048 0.769,-0.071 1.14,-0.071 0.919,0 1.731,0.112 2.414,0.332 0.685,0.219 1.266,0.523 1.73,0.904 0.465,0.389 0.812,0.835 1.03,1.328 0.218,0.491 0.328,1.001 0.328,1.515 C 0.308,-0.976 0.205,-0.448 0,0"
       style="fill:#f47216;fill-opacity:1;fill-rule:nonzero;stroke:none"
       transform="matrix(1.3333333,0,0,-1.3333333,463.18227,153.89027)" />
    <path
       id="path23"
       d="M 0,0 C -0.484,0.176 -0.888,0.432 -1.209,0.764 -1.398,0.954 -1.56,1.173 -1.69,1.421 -1.821,1.671 -1.929,2.003 -2.01,2.407 -2.095,2.824 -2.162,3.361 -2.21,4.004 -2.258,4.647 -2.281,5.466 -2.281,6.44 V 19.479 H -4.383 V 5.397 c 0,-1.228 0.075,-2.349 0.224,-3.334 0.154,-1.038 0.593,-1.941 1.302,-2.686 0.298,-0.314 0.648,-0.578 1.034,-0.786 0.381,-0.202 0.762,-0.361 1.131,-0.473 0.364,-0.11 0.702,-0.193 1.008,-0.241 0.318,-0.053 0.565,-0.078 0.758,-0.078 h 0.295 l 0.224,1.932 H 1.218 C 0.909,-0.269 0.5,-0.176 0,0"
       style="fill:#8d9091;fill-opacity:1;fill-rule:nonzero;stroke:none"
       transform="matrix(1.3333333,0,0,-1.3333333,138.04293,124.37987)" />
    <path
       id="path24"
       d="m 0,0 c 0.984,0 1.777,-0.178 2.355,-0.529 0.587,-0.359 1.044,-0.788 1.355,-1.283 0.318,-0.504 0.524,-1.021 0.614,-1.532 0.065,-0.383 0.11,-0.72 0.129,-1.006 h -9.409 c 0.082,0.386 0.209,0.792 0.378,1.213 0.219,0.552 0.529,1.068 0.923,1.532 0.389,0.456 0.891,0.842 1.494,1.149 C -1.567,-0.153 -0.841,0 0,0 M 5.477,-0.857 C 5.014,-0.122 4.352,0.514 3.511,1.032 2.662,1.553 1.538,1.817 0.173,1.817 -0.861,1.817 -1.839,1.63 -2.736,1.253 -3.634,0.882 -4.42,0.344 -5.073,-0.341 -5.726,-1.027 -6.247,-1.874 -6.62,-2.854 -6.994,-3.831 -7.184,-4.94 -7.184,-6.158 c 0,-1.041 0.181,-2.017 0.537,-2.899 0.355,-0.889 0.868,-1.668 1.523,-2.314 0.654,-0.646 1.456,-1.159 2.38,-1.52 0.925,-0.362 1.965,-0.546 3.093,-0.546 0.359,0 0.701,0.011 1.031,0.03 0.332,0.019 0.638,0.051 0.918,0.087 l 0.316,0.047 -0.179,1.839 -0.34,-0.043 c -0.462,-0.056 -0.999,-0.082 -1.6,-0.082 -0.797,0 -1.546,0.118 -2.229,0.359 -0.674,0.23 -1.268,0.592 -1.767,1.068 -0.5,0.474 -0.897,1.075 -1.18,1.781 -0.253,0.626 -0.396,1.372 -0.425,2.212 H 6.473 l 0.076,0.223 c 0.051,0.152 0.077,0.305 0.077,0.455 v 0.519 c 0,0.484 -0.078,1.106 -0.228,1.847 -0.152,0.759 -0.463,1.512 -0.921,2.238"
       style="fill:#8d9091;fill-opacity:1;fill-rule:nonzero;stroke:none"
       transform="matrix(1.3333333,0,0,-1.3333333,149.972,109.47693)" />
    <path
       id="path25"
       d="m 0,0 c -0.508,0.165 -0.967,0.337 -1.36,0.508 -0.376,0.165 -0.698,0.346 -0.959,0.541 -0.239,0.182 -0.423,0.394 -0.546,0.636 -0.125,0.247 -0.184,0.533 -0.184,0.869 0,0.587 0.212,1.084 0.647,1.518 0.432,0.426 1.096,0.641 1.974,0.641 0.769,0 1.394,-0.103 1.856,-0.307 C 1.92,4.192 2.277,4.013 2.488,3.87 L 2.811,3.657 3.658,5.419 3.417,5.578 C 2.979,5.865 2.447,6.103 1.835,6.285 1.22,6.468 0.549,6.559 -0.164,6.559 -0.961,6.559 -1.676,6.444 -2.284,6.219 -2.899,5.995 -3.425,5.679 -3.848,5.281 -4.271,4.882 -4.593,4.426 -4.802,3.925 -5.014,3.424 -5.122,2.901 -5.122,2.379 c 0,-1.852 1.358,-3.224 4.039,-4.08 1.065,-0.331 1.864,-0.717 2.373,-1.139 0.472,-0.394 0.701,-0.931 0.701,-1.644 0,-0.627 -0.244,-1.165 -0.747,-1.646 -0.499,-0.476 -1.328,-0.719 -2.461,-0.719 -0.661,0 -1.284,0.102 -1.85,0.303 -0.58,0.2 -1.079,0.433 -1.482,0.691 l -0.332,0.207 -0.796,-1.839 0.252,-0.147 c 0.547,-0.323 1.18,-0.584 1.88,-0.775 0.699,-0.19 1.442,-0.286 2.21,-0.286 0.831,0 1.585,0.108 2.24,0.322 0.661,0.213 1.235,0.516 1.705,0.897 0.476,0.391 0.841,0.859 1.087,1.394 0.243,0.535 0.366,1.109 0.366,1.713 0,1.13 -0.355,2.045 -1.054,2.713 C 2.343,-1.019 1.331,-0.461 0,0"
       style="fill:#8d9091;fill-opacity:1;fill-rule:nonzero;stroke:none"
       transform="matrix(1.3333333,0,0,-1.3333333,169.0756,115.7992)" />
    <path
       id="path26"
       d="M 0,0 H 9.278 V 1.848 H -2.101 V -18.33 H 0 v 9.47 h 9.952 v 1.846 l -9.952,0 z"
       style="fill:#8d9091;fill-opacity:1;fill-rule:nonzero;stroke:none"
       transform="matrix(1.3333333,0,0,-1.3333333,191.194,102.48853)" />
    <path
       id="path27"
       d="m 0,0 c 0,-0.953 -0.164,-1.807 -0.485,-2.529 -0.323,-0.732 -0.75,-1.354 -1.273,-1.852 -0.521,-0.496 -1.132,-0.877 -1.816,-1.13 -1.366,-0.502 -2.886,-0.517 -4.227,-10e-4 -0.655,0.253 -1.243,0.628 -1.745,1.114 -0.504,0.492 -0.918,1.1 -1.231,1.809 -0.311,0.708 -0.469,1.529 -0.469,2.443 0,0.774 0.122,1.52 0.363,2.228 0.238,0.7 0.598,1.33 1.065,1.874 0.464,0.539 1.054,0.974 1.757,1.289 0.704,0.317 1.54,0.478 2.481,0.478 0.974,0 1.819,-0.183 2.509,-0.541 C -2.373,4.817 -1.788,4.354 -1.33,3.801 -0.871,3.248 -0.532,2.629 -0.322,1.958 -0.108,1.278 0,0.619 0,0 m 0.059,5.368 c -0.66,0.678 -1.476,1.215 -2.424,1.598 -0.945,0.383 -2.016,0.574 -3.184,0.574 -1.012,0 -1.996,-0.178 -2.93,-0.529 -0.936,-0.349 -1.77,-0.87 -2.482,-1.544 -0.711,-0.676 -1.288,-1.498 -1.713,-2.451 -0.427,-0.957 -0.644,-2.05 -0.644,-3.247 0,-1.062 0.192,-2.065 0.566,-2.978 0.375,-0.913 0.907,-1.712 1.582,-2.379 0.671,-0.668 1.483,-1.194 2.406,-1.566 0.926,-0.37 1.949,-0.559 3.039,-0.559 0.888,0 1.804,0.153 2.724,0.45 0.924,0.302 1.777,0.776 2.539,1.408 0.763,0.633 1.392,1.452 1.87,2.425 0.479,0.978 0.723,2.159 0.723,3.517 0,1.017 -0.181,1.996 -0.538,2.9 -0.354,0.906 -0.87,1.709 -1.534,2.381"
       style="fill:#8d9091;fill-opacity:1;fill-rule:nonzero;stroke:none"
       transform="matrix(1.3333333,0,0,-1.3333333,224.29627,117.10773)" />
    <path
       id="path28"
       d="m 0,0 c 0.986,0 1.779,-0.178 2.357,-0.529 0.589,-0.359 1.043,-0.788 1.356,-1.283 0.316,-0.5 0.521,-1.016 0.612,-1.532 0.067,-0.383 0.11,-0.72 0.131,-1.006 h -9.412 c 0.084,0.381 0.211,0.791 0.379,1.213 0.22,0.556 0.532,1.068 0.926,1.532 0.388,0.456 0.89,0.842 1.492,1.149 C -1.564,-0.153 -0.839,0 0,0 M 5.478,-0.857 C 5.015,-0.122 4.354,0.514 3.514,1.032 2.663,1.553 1.541,1.817 0.175,1.817 -0.859,1.817 -1.838,1.63 -2.734,1.253 -3.63,0.882 -4.417,0.344 -5.071,-0.341 c -0.652,-0.686 -1.174,-1.533 -1.548,-2.516 -0.373,-0.978 -0.563,-2.09 -0.563,-3.301 0,-1.041 0.182,-2.017 0.537,-2.899 0.355,-0.889 0.868,-1.667 1.523,-2.314 0.655,-0.646 1.457,-1.159 2.381,-1.52 0.924,-0.362 1.965,-0.546 3.093,-0.546 0.358,0 0.701,0.011 1.031,0.03 0.33,0.019 0.637,0.051 0.918,0.087 l 0.316,0.047 -0.182,1.839 -0.338,-0.043 c -0.46,-0.056 -0.997,-0.082 -1.598,-0.082 -0.798,0 -1.548,0.118 -2.233,0.359 -0.672,0.23 -1.266,0.592 -1.766,1.068 -0.501,0.477 -0.898,1.077 -1.181,1.781 -0.252,0.628 -0.394,1.372 -0.423,2.212 h 11.58 l 0.075,0.226 c 0.051,0.15 0.075,0.302 0.075,0.452 v 0.519 c 0,0.488 -0.075,1.107 -0.226,1.848 -0.153,0.761 -0.464,1.513 -0.922,2.237"
       style="fill:#8d9091;fill-opacity:1;fill-rule:nonzero;stroke:none"
       transform="matrix(1.3333333,0,0,-1.3333333,257.90947,109.47693)" />
    <path
       id="path29"
       d="m 0,0 -0.247,0.068 c -0.24,0.063 -0.496,0.098 -0.761,0.098 -1.131,0 -2.107,-0.343 -2.895,-1.023 -0.468,-0.399 -0.864,-0.874 -1.187,-1.411 l -0.039,2.086 h -1.995 l 0.018,-0.346 c 0.038,-0.75 0.068,-1.496 0.087,-2.237 0.02,-0.738 0.028,-1.487 0.028,-2.234 v -9.741 h 2.102 v 7.858 c 0,0.438 0.047,0.874 0.141,1.3 0.219,1.147 0.659,2.076 1.306,2.761 0.633,0.671 1.382,0.995 2.287,0.995 h 0.411 c 0.103,0 0.207,-0.013 0.319,-0.046 L 0,-1.989 Z"
       style="fill:#8d9091;fill-opacity:1;fill-rule:nonzero;stroke:none"
       transform="matrix(1.3333333,0,0,-1.3333333,279.00067,107.27507)" />
    <path
       id="path30"
       d="m 0,0 c -0.508,0.165 -0.968,0.337 -1.363,0.508 -0.375,0.165 -0.696,0.346 -0.957,0.541 -0.241,0.182 -0.424,0.394 -0.546,0.636 -0.125,0.249 -0.185,0.533 -0.185,0.869 0,0.587 0.211,1.084 0.648,1.518 0.433,0.426 1.096,0.641 1.974,0.641 0.768,0 1.392,-0.103 1.857,-0.307 C 1.917,4.192 2.274,4.013 2.488,3.87 L 2.809,3.657 3.656,5.419 3.415,5.578 C 2.977,5.865 2.446,6.103 1.834,6.285 1.22,6.468 0.547,6.559 -0.164,6.559 -0.962,6.559 -1.676,6.444 -2.286,6.219 -2.901,5.995 -3.425,5.679 -3.849,5.281 -4.271,4.885 -4.593,4.428 -4.804,3.924 c -0.212,-0.5 -0.32,-1.023 -0.32,-1.545 0,-1.852 1.359,-3.224 4.039,-4.08 1.066,-0.331 1.864,-0.717 2.374,-1.139 0.472,-0.394 0.701,-0.931 0.701,-1.644 0,-0.627 -0.245,-1.165 -0.748,-1.646 -0.5,-0.476 -1.327,-0.719 -2.461,-0.719 -0.66,0 -1.282,0.102 -1.849,0.303 -0.581,0.2 -1.078,0.433 -1.484,0.691 l -0.332,0.207 -0.796,-1.839 0.252,-0.147 c 0.55,-0.325 1.183,-0.584 1.882,-0.775 0.699,-0.19 1.442,-0.286 2.21,-0.286 0.831,0 1.584,0.108 2.242,0.322 0.66,0.213 1.233,0.516 1.701,0.897 0.477,0.388 0.843,0.859 1.089,1.394 0.242,0.533 0.365,1.109 0.365,1.713 0,1.131 -0.354,2.045 -1.054,2.713 C 2.343,-1.019 1.331,-0.461 0,0"
       style="fill:#8d9091;fill-opacity:1;fill-rule:nonzero;stroke:none"
       transform="matrix(1.3333333,0,0,-1.3333333,286.50133,115.7992)" />
    <path
       id="path31"
       d="m 0,0 c 0,-0.978 -0.145,-1.853 -0.432,-2.606 -0.284,-0.743 -0.678,-1.372 -1.171,-1.866 -0.49,-0.498 -1.071,-0.877 -1.725,-1.127 -1.222,-0.47 -2.732,-0.553 -4.084,-0.003 -0.622,0.253 -1.183,0.62 -1.665,1.088 -0.485,0.471 -0.883,1.063 -1.185,1.766 -0.303,0.694 -0.456,1.512 -0.456,2.43 0,0.678 0.108,1.382 0.322,2.09 0.212,0.704 0.543,1.35 0.984,1.921 0.439,0.572 1.004,1.043 1.68,1.404 0.669,0.358 1.474,0.539 2.388,0.539 0.958,0 1.762,-0.163 2.393,-0.484 C -2.3,4.82 -1.756,4.448 -1.331,4.049 -0.847,3.588 -0.503,3.057 -0.305,2.474 -0.103,1.872 0,1.041 0,0 M 0.809,5.964 C 0.47,6.656 0.061,7.323 -0.408,7.956 c -0.47,0.631 -0.997,1.238 -1.561,1.796 -0.265,0.284 -0.54,0.543 -0.818,0.777 -0.284,0.242 -0.577,0.473 -0.867,0.682 l -1.022,0.754 c -0.636,0.469 -1.341,0.9 -2.098,1.287 -0.744,0.378 -1.502,0.719 -2.253,1.011 l -0.284,0.114 -0.89,-1.762 0.352,-0.125 c 0.63,-0.227 1.265,-0.492 1.887,-0.786 0.618,-0.289 1.156,-0.596 1.612,-0.915 l 1.083,-0.724 c 1.08,-0.714 1.993,-1.506 2.71,-2.358 0.34,-0.402 0.661,-0.814 0.96,-1.233 -0.399,0.254 -0.794,0.444 -1.185,0.572 -1.706,0.556 -3.559,0.566 -5.281,-0.14 -0.884,-0.364 -1.687,-0.886 -2.388,-1.558 -0.7,-0.674 -1.272,-1.502 -1.697,-2.463 -0.426,-0.966 -0.642,-2.062 -0.642,-3.261 0,-1.059 0.18,-2.051 0.535,-2.945 0.354,-0.892 0.86,-1.684 1.504,-2.349 0.645,-0.67 1.431,-1.196 2.336,-1.571 0.907,-0.37 1.911,-0.56 2.982,-0.56 0.91,0 1.822,0.153 2.713,0.453 0.897,0.302 1.719,0.78 2.443,1.428 0.724,0.647 1.318,1.482 1.764,2.487 0.446,1.001 0.672,2.226 0.672,3.638 0,1.058 -0.115,2.078 -0.345,3.029 -0.229,0.942 -0.567,1.863 -1.005,2.73"
       style="fill:#8d9091;fill-opacity:1;fill-rule:nonzero;stroke:none"
       transform="matrix(1.3333333,0,0,-1.3333333,321.15373,116.9912)" />
    <path
       id="path32"
       d="m 0,0 c 0.986,0 1.779,-0.178 2.357,-0.529 0.588,-0.359 1.042,-0.788 1.357,-1.283 0.316,-0.503 0.522,-1.021 0.612,-1.532 0.066,-0.382 0.11,-0.719 0.13,-1.006 h -9.412 c 0.085,0.386 0.211,0.791 0.378,1.213 0.221,0.554 0.533,1.068 0.927,1.532 0.389,0.456 0.891,0.845 1.493,1.149 C -1.566,-0.153 -0.838,0 0,0 M 5.479,-0.857 C 5.018,-0.122 4.357,0.51 3.515,1.032 2.663,1.553 1.542,1.817 0.178,1.817 -0.858,1.817 -1.839,1.63 -2.733,1.253 -3.631,0.882 -4.419,0.344 -5.07,-0.341 -5.721,-1.026 -6.243,-1.87 -6.619,-2.857 -6.992,-3.831 -7.181,-4.94 -7.181,-6.158 c 0,-1.041 0.18,-2.017 0.535,-2.899 0.356,-0.887 0.869,-1.666 1.524,-2.314 0.654,-0.646 1.455,-1.159 2.381,-1.52 0.923,-0.362 1.965,-0.546 3.093,-0.546 0.357,0 0.701,0.011 1.031,0.03 0.331,0.019 0.637,0.051 0.919,0.087 l 0.315,0.047 -0.179,1.839 -0.34,-0.043 c -0.462,-0.056 -1,-0.082 -1.599,-0.082 -0.798,0 -1.549,0.118 -2.232,0.359 -0.673,0.23 -1.268,0.592 -1.766,1.068 -0.5,0.474 -0.897,1.073 -1.181,1.781 -0.252,0.626 -0.394,1.372 -0.424,2.212 H 6.475 l 0.076,0.223 c 0.05,0.152 0.075,0.305 0.075,0.455 v 0.519 c 0,0.488 -0.075,1.107 -0.226,1.847 -0.152,0.759 -0.463,1.512 -0.921,2.238"
       style="fill:#8d9091;fill-opacity:1;fill-rule:nonzero;stroke:none"
       transform="matrix(1.3333333,0,0,-1.3333333,336.19147,109.47693)" />
    <path
       id="path33"
       d="m 0,0 c -0.654,-0.318 -1.429,-0.566 -2.306,-0.742 -0.881,-0.177 -1.808,-0.267 -2.758,-0.267 -1.512,0 -2.848,0.222 -3.975,0.656 -1.124,0.436 -2.08,1.034 -2.843,1.781 -0.763,0.746 -1.343,1.634 -1.723,2.647 -0.384,1.018 -0.577,2.118 -0.577,3.271 0,1.27 0.204,2.46 0.608,3.533 0.398,1.069 1.003,2.004 1.794,2.781 0.793,0.769 1.785,1.386 2.958,1.82 1.176,0.436 2.558,0.659 4.112,0.659 0.905,0 1.773,-0.091 2.575,-0.269 0.799,-0.176 1.487,-0.407 2.044,-0.683 l 0.328,-0.16 0.713,1.81 -0.283,0.132 c -0.351,0.164 -0.95,0.368 -1.829,0.626 -0.898,0.265 -2.088,0.389 -3.637,0.389 -1.893,0 -3.576,-0.305 -5.004,-0.911 -1.431,-0.601 -2.643,-1.406 -3.605,-2.387 -0.963,-0.98 -1.701,-2.113 -2.197,-3.368 -0.489,-1.25 -0.738,-2.547 -0.738,-3.855 0,-1.74 0.306,-3.276 0.909,-4.568 0.601,-1.294 1.412,-2.381 2.41,-3.24 0.995,-0.855 2.157,-1.5 3.452,-1.915 1.287,-0.415 2.627,-0.627 3.984,-0.627 1.441,0 2.721,0.128 3.805,0.371 1.098,0.248 1.92,0.507 2.514,0.793 l 0.276,0.132 -0.678,1.748 z"
       style="fill:#8d9091;fill-opacity:1;fill-rule:nonzero;stroke:none"
       transform="matrix(1.3333333,0,0,-1.3333333,378.53253,123.54333)" />
    <path
       id="path34"
       d="M 0,0 C -0.121,0.275 -0.255,0.636 -0.414,1.102 -0.56,1.533 -0.631,1.919 -0.631,2.244 v 5.067 c 0,0.977 -0.106,1.832 -0.32,2.543 -0.215,0.714 -0.502,1.331 -0.85,1.828 -0.352,0.503 -0.757,0.912 -1.197,1.216 -0.433,0.293 -0.873,0.521 -1.308,0.673 -0.428,0.153 -0.84,0.257 -1.222,0.307 -0.382,0.051 -0.678,0.076 -0.909,0.076 -0.597,0 -1.19,-0.087 -1.766,-0.259 -0.569,-0.172 -1.096,-0.403 -1.559,-0.679 -0.517,-0.29 -0.977,-0.646 -1.368,-1.064 -0.129,-0.137 -0.248,-0.277 -0.359,-0.419 v 8.904 h -2.102 V -0.952 h 2.102 v 8.581 c 0,0.557 0.071,1.01 0.21,1.356 0.162,0.391 0.389,0.783 0.672,1.154 0.283,0.368 0.625,0.695 1.014,0.973 0.39,0.28 0.829,0.511 1.298,0.683 0.459,0.168 0.956,0.254 1.477,0.254 0.687,0 1.288,-0.11 1.779,-0.334 0.49,-0.218 0.899,-0.516 1.214,-0.879 0.378,-0.444 0.657,-0.978 0.828,-1.584 0.178,-0.629 0.265,-1.297 0.265,-1.999 V 2.244 c 0,-0.484 0.047,-0.95 0.139,-1.385 0.091,-0.431 0.2,-0.816 0.32,-1.145 0.122,-0.329 0.271,-0.681 0.451,-1.057 l 0.136,-0.281 2.059,0.83 -0.161,0.318 C 0.192,-0.439 0.123,-0.28 0,0"
       style="fill:#8d9091;fill-opacity:1;fill-rule:nonzero;stroke:none"
       transform="matrix(1.3333333,0,0,-1.3333333,401.78907,125.65853)" />
    <path
       id="path35"
       d="m 0,0 v -2.63 c 0,-0.207 -0.049,-0.438 -0.147,-0.679 -0.125,-0.284 -0.31,-0.588 -0.547,-0.903 -0.229,-0.306 -0.53,-0.588 -0.888,-0.84 -0.364,-0.252 -0.8,-0.466 -1.297,-0.638 -0.487,-0.172 -1.06,-0.258 -1.703,-0.258 -0.75,0 -1.387,0.215 -1.944,0.653 -0.536,0.421 -0.795,1.055 -0.795,1.942 0,0.728 0.208,1.29 0.635,1.724 0.447,0.451 1.032,0.804 1.745,1.047 0.73,0.252 1.564,0.418 2.48,0.491 C -1.715,-0.029 -0.961,0 -0.22,0 Z m 2.283,-5.337 c -0.12,0.526 -0.181,1.07 -0.181,1.607 v 5.039 c 0,0.553 -0.055,1.19 -0.165,1.888 -0.114,0.73 -0.365,1.411 -0.746,2.034 -0.39,0.632 -0.966,1.173 -1.714,1.603 -0.749,0.435 -1.76,0.654 -3.006,0.654 -0.407,0 -0.828,-0.03 -1.248,-0.09 l -0.34,-0.047 0.059,-0.336 c 0.059,-0.324 0.117,-0.706 0.175,-1.142 l 0.043,-0.324 0.327,0.037 c 0.15,0.02 0.295,0.034 0.435,0.042 0.14,0.009 0.283,0.014 0.432,0.014 0.867,0 1.547,-0.148 2.017,-0.44 C -1.15,4.903 -0.79,4.544 -0.555,4.143 -0.314,3.728 -0.161,3.299 -0.098,2.869 -0.033,2.42 0,2.077 0,1.846 h -0.043 c -3.135,0 -5.496,-0.471 -7.013,-1.4 -1.628,-0.997 -2.454,-2.363 -2.454,-4.06 0,-0.565 0.131,-1.146 0.394,-1.726 0.267,-0.592 0.703,-1.106 1.295,-1.525 0.296,-0.208 0.625,-0.386 0.975,-0.528 0.36,-0.146 0.761,-0.251 1.192,-0.312 h 0.061 c 0.143,-0.02 0.286,-0.036 0.43,-0.046 0.145,-0.01 0.298,-0.015 0.464,-0.015 0.67,0 1.302,0.083 1.876,0.245 0.57,0.161 1.09,0.376 1.541,0.642 0.451,0.26 0.843,0.549 1.17,0.855 0.137,0.124 0.262,0.249 0.376,0.375 l 0.461,-2.123 1.954,0.43 -0.053,0.312 c -0.103,0.576 -0.218,1.147 -0.343,1.693"
       style="fill:#8d9091;fill-opacity:1;fill-rule:nonzero;stroke:none"
       transform="matrix(1.3333333,0,0,-1.3333333,417.61853,117.03747)" />
    <path
       id="path36"
       d="m 0,0 c -1.133,0 -2.106,-0.343 -2.897,-1.023 -0.468,-0.399 -0.865,-0.874 -1.186,-1.411 l -0.038,2.086 h -1.998 l 0.018,-0.346 c 0.04,-0.75 0.069,-1.496 0.088,-2.237 0.019,-0.738 0.031,-1.487 0.031,-2.234 v -9.741 h 2.099 v 7.858 c 0,0.438 0.046,0.874 0.141,1.3 0.222,1.148 0.661,2.079 1.308,2.761 0.63,0.671 1.379,0.995 2.287,0.995 h 0.408 c 0.105,0 0.21,-0.013 0.321,-0.046 l 0.423,-0.117 v 1.989 L 0.76,-0.098 C 0.519,-0.035 0.264,0 0,0"
       style="fill:#8d9091;fill-opacity:1;fill-rule:nonzero;stroke:none"
       transform="matrix(1.3333333,0,0,-1.3333333,434.06573,107.05373)" />
    <path
       id="path37"
       d="m 328.931,60.104 h 2.102 v 14.558 h -2.102 z"
       style="fill:#8d9091;fill-opacity:1;fill-rule:nonzero;stroke:none"
       transform="matrix(1.3333333,0,0,-1.3333333,0,207.06667)" />
    <path
       id="path38"
       d="m 0,0 c -0.428,0 -0.794,-0.159 -1.094,-0.484 -0.292,-0.314 -0.44,-0.679 -0.44,-1.09 0,-0.406 0.135,-0.77 0.403,-1.081 0.28,-0.331 0.651,-0.494 1.102,-0.494 0.471,0 0.853,0.163 1.131,0.494 0.266,0.309 0.402,0.673 0.402,1.081 0,0.409 -0.141,0.775 -0.42,1.085 C 0.794,-0.16 0.43,0 0,0"
       style="fill:#8d9091;fill-opacity:1;fill-rule:nonzero;stroke:none"
       transform="matrix(1.3333333,0,0,-1.3333333,439.99547,99.9892)" />
    <path
       id="path39"
       d="m 0,0 0.465,1.789 h -4.547 v 3.186 l -2.1,-0.637 V 1.789 h -2.5 L -9.146,0 h 2.964 v -8.386 c 0,-0.678 0.071,-1.334 0.213,-1.954 0.148,-0.65 0.421,-1.197 0.801,-1.613 0.648,-0.774 1.61,-1.164 2.86,-1.164 0.487,0 0.93,0.041 1.317,0.122 0.375,0.082 0.702,0.174 0.971,0.276 l 0.25,0.097 -0.282,1.76 -0.38,-0.139 c -0.194,-0.072 -0.423,-0.125 -0.701,-0.173 -0.271,-0.042 -0.618,-0.065 -1.028,-0.065 -0.734,0 -1.217,0.226 -1.478,0.698 -0.293,0.524 -0.443,1.191 -0.443,1.982 V 0 Z"
       style="fill:#8d9091;fill-opacity:1;fill-rule:nonzero;stroke:none"
       transform="matrix(1.3333333,0,0,-1.3333333,456.37893,109.90267)" />
    <path
       id="path40"
       d="M 0,0 C 0.985,0 1.779,-0.178 2.354,-0.529 2.944,-0.888 3.4,-1.317 3.71,-1.812 4.03,-2.316 4.235,-2.833 4.324,-3.344 4.391,-3.727 4.433,-4.064 4.454,-4.35 h -9.412 c 0.085,0.386 0.212,0.791 0.38,1.213 0.219,0.554 0.53,1.068 0.923,1.532 0.389,0.456 0.891,0.842 1.494,1.149 C -1.567,-0.153 -0.84,0 0,0 M 6.397,-3.095 C 6.246,-2.336 5.935,-1.583 5.477,-0.857 5.015,-0.122 4.353,0.514 3.512,1.032 2.662,1.553 1.538,1.817 0.175,1.817 -0.859,1.817 -1.838,1.63 -2.736,1.253 -3.634,0.882 -4.42,0.344 -5.072,-0.341 -5.728,-1.027 -6.247,-1.874 -6.62,-2.854 c -0.374,-0.979 -0.564,-2.089 -0.564,-3.304 0,-1.041 0.182,-2.017 0.536,-2.899 0.357,-0.889 0.87,-1.668 1.524,-2.314 0.654,-0.646 1.455,-1.159 2.38,-1.52 0.925,-0.362 1.963,-0.546 3.092,-0.546 0.36,0 0.703,0.011 1.031,0.03 0.332,0.019 0.639,0.051 0.92,0.087 l 0.316,0.047 -0.18,1.839 -0.339,-0.043 c -0.461,-0.056 -1,-0.082 -1.6,-0.082 -0.797,0 -1.547,0.118 -2.23,0.359 -0.675,0.23 -1.268,0.592 -1.768,1.068 -0.499,0.474 -0.896,1.075 -1.178,1.781 -0.254,0.626 -0.395,1.371 -0.425,2.212 H 6.471 l 0.079,0.223 c 0.048,0.152 0.075,0.305 0.075,0.455 v 0.519 c 0,0.486 -0.075,1.107 -0.228,1.847"
       style="fill:#8d9091;fill-opacity:1;fill-rule:nonzero;stroke:none"
       transform="matrix(1.3333333,0,0,-1.3333333,467.31387,109.47693)" />
    <path
       id="path41"
       d="M 0,0 H -3.099 L -6.196,-4.711 H -4.32 Z"
       style="fill:#8d9091;fill-opacity:1;fill-rule:nonzero;stroke:none"
       transform="matrix(1.3333333,0,0,-1.3333333,473.388,99.7184)" />
    <path
       id="path42"
       d="m 0,0 c -0.234,-0.561 -0.45,-1.102 -0.648,-1.615 -0.08,-0.214 -0.158,-0.419 -0.232,-0.621 -0.076,0.211 -0.156,0.428 -0.242,0.647 -0.208,0.544 -0.424,1.044 -0.636,1.483 l -4.274,9.49 h -2.281 l 6.038,-13.383 c 0.163,-0.352 0.171,-0.475 0.171,-0.497 0,-0.011 -0.003,-0.112 -0.145,-0.417 -0.437,-0.953 -0.895,-1.728 -1.36,-2.301 -0.472,-0.58 -0.89,-1.022 -1.247,-1.322 -0.423,-0.36 -0.855,-0.646 -1.283,-0.845 -0.081,-0.039 -0.153,-0.068 -0.228,-0.098 l -1.604,-0.681 h 4.152 l 0.092,0.073 c 0.397,0.316 0.732,0.631 1.023,0.957 0.409,0.465 0.822,1.023 1.229,1.662 0.409,0.637 0.823,1.389 1.234,2.234 0.406,0.828 0.861,1.812 1.352,2.92 L 6.292,9.384 H 4.009 Z"
       style="fill:#8d9091;fill-opacity:1;fill-rule:nonzero;stroke:none"
       transform="matrix(1.3333333,0,0,-1.3333333,239.11853,120.02893)" />
    <path
       id="path43"
       d="m 0,0 c -0.574,1.505 -1.469,2.809 -2.688,3.913 -1.218,1.103 -2.78,1.97 -4.686,2.601 -1.907,0.631 -4.179,0.946 -6.816,0.946 -1.405,0 -2.638,-0.057 -3.698,-0.172 -1.061,-0.115 -1.964,-0.244 -2.709,-0.387 v -25.155 c 0.688,-0.115 1.527,-0.187 2.516,-0.215 0.989,-0.029 2.07,-0.043 3.246,-0.043 2.752,0 5.117,0.359 7.095,1.075 1.978,0.717 3.597,1.684 4.859,2.903 1.261,1.218 2.2,2.651 2.817,4.3 0.616,1.648 0.924,3.418 0.924,5.31 C 0.86,-3.146 0.573,-1.505 0,0 m 2.15,-10.191 c -0.573,-1.878 -1.62,-3.634 -3.139,-5.268 -1.405,-1.491 -3.304,-2.666 -5.697,-3.525 -2.394,-0.861 -5.225,-1.291 -8.493,-1.291 -1.319,0 -2.587,0.015 -3.805,0.043 -1.219,0.029 -2.459,0.101 -3.72,0.215 V 8.579 c 1.29,0.171 2.651,0.322 4.085,0.451 1.433,0.129 2.967,0.194 4.601,0.194 3.096,0 5.784,-0.402 8.063,-1.204 C -3.676,7.216 -1.849,6.07 -0.473,4.579 0.731,3.261 1.613,1.828 2.172,0.279 2.73,-1.269 3.01,-2.989 3.01,-4.88 c 0,-1.664 -0.287,-3.434 -0.86,-5.311"
       style="fill:#f47216;fill-opacity:1;fill-rule:nonzero;stroke:none"
       transform="matrix(1.3333333,0,0,-1.3333333,159.87373,61.049733)" />
    <path
       id="path44"
       d="m 0,0 c -0.574,1.505 -1.469,2.809 -2.688,3.913 -1.218,1.103 -2.78,1.97 -4.686,2.601 -1.907,0.631 -4.179,0.946 -6.816,0.946 -1.405,0 -2.638,-0.057 -3.698,-0.172 -1.061,-0.115 -1.964,-0.244 -2.709,-0.387 v -25.155 c 0.688,-0.115 1.527,-0.187 2.516,-0.215 0.989,-0.029 2.07,-0.043 3.246,-0.043 2.752,0 5.117,0.359 7.095,1.075 1.978,0.717 3.597,1.684 4.859,2.903 1.261,1.218 2.2,2.651 2.817,4.3 0.616,1.648 0.924,3.418 0.924,5.31 C 0.86,-3.146 0.573,-1.505 0,0 Z m 2.15,-10.191 c -0.573,-1.878 -1.62,-3.634 -3.139,-5.268 -1.405,-1.491 -3.304,-2.666 -5.697,-3.525 -2.394,-0.861 -5.225,-1.291 -8.493,-1.291 -1.319,0 -2.587,0.015 -3.805,0.043 -1.219,0.029 -2.459,0.101 -3.72,0.215 V 8.579 c 1.29,0.171 2.651,0.322 4.085,0.451 1.433,0.129 2.967,0.194 4.601,0.194 3.096,0 5.784,-0.402 8.063,-1.204 C -3.676,7.216 -1.849,6.07 -0.473,4.579 0.731,3.261 1.613,1.828 2.172,0.279 2.73,-1.269 3.01,-2.989 3.01,-4.88 c 0,-1.664 -0.287,-3.434 -0.86,-5.311 z"
       style="fill:none;stroke:#f47216;stroke-width:2;stroke-linecap:butt;stroke-linejoin:miter;stroke-miterlimit:10;stroke-dasharray:none;stroke-opacity:1"
       transform="matrix(1.3333333,0,0,-1.3333333,159.87373,61.049733)" />
    <path
       id="path45"
       d="M 0,0 V 28.982 H 14.878 V 27.219 H 2.107 V 16.168 h 12.9 V 14.405 H 2.107 V 1.763 H 17.329 V 0 Z"
       style="fill:#f47216;fill-opacity:1;fill-rule:nonzero;stroke:#f47216;stroke-width:2;stroke-linecap:butt;stroke-linejoin:miter;stroke-miterlimit:10;stroke-dasharray:none;stroke-opacity:1"
       transform="matrix(1.3333333,0,0,-1.3333333,172.42973,87.738533)" />
    <path
       id="path46"
       d="m 0,0 -12.685,17.243 c -1.233,1.691 -2.387,3.29 -3.461,4.795 -1.076,1.504 -2,2.902 -2.774,4.192 l -0.129,-0.086 c 0.114,-1.634 0.186,-3.283 0.215,-4.945 0.028,-1.663 0.043,-3.569 0.043,-5.719 V 0 h -2.064 v 28.982 h 1.978 L -5.762,11.137 c 1.318,-1.806 2.444,-3.348 3.375,-4.622 0.931,-1.276 1.77,-2.559 2.516,-3.849 l 0.086,0.086 c -0.144,1.691 -0.236,3.432 -0.279,5.225 -0.043,1.791 -0.065,3.805 -0.065,6.041 V 28.982 H 1.935 L 1.935,0 Z"
       style="fill:#f47216;fill-opacity:1;fill-rule:nonzero;stroke:#f47216;stroke-width:2;stroke-linecap:butt;stroke-linejoin:miter;stroke-miterlimit:10;stroke-dasharray:none;stroke-opacity:1"
       transform="matrix(1.3333333,0,0,-1.3333333,230.8516,87.738533)" />
    <path
       id="path47"
       d="M 0,0 V -27.219 H -2.107 V 0 H -12.9 v 1.763 h 23.693 l 0,-1.763 z"
       style="fill:#f47216;fill-opacity:1;fill-rule:nonzero;stroke:#f47216;stroke-width:2;stroke-linecap:butt;stroke-linejoin:miter;stroke-miterlimit:10;stroke-dasharray:none;stroke-opacity:1"
       transform="matrix(1.3333333,0,0,-1.3333333,255.84827,51.446267)" />
    <path
       id="path48"
       d="m 0,0 c -0.372,-0.961 -0.96,-1.821 -1.763,-2.58 -0.803,-0.76 -1.827,-1.369 -3.074,-1.828 -1.248,-0.458 -2.731,-0.688 -4.451,-0.688 -0.688,0 -1.398,0.051 -2.128,0.151 -0.731,0.101 -1.441,0.244 -2.129,0.43 -0.688,0.186 -1.333,0.415 -1.935,0.688 -0.602,0.272 -1.118,0.566 -1.548,0.881 l 0.817,1.763 c 0.946,-0.659 2.028,-1.182 3.247,-1.569 1.218,-0.387 2.529,-0.581 3.934,-0.581 2.35,0 4.193,0.56 5.526,1.677 1.333,1.118 1.999,2.58 1.999,4.386 0,0.832 -0.115,1.577 -0.344,2.236 -0.23,0.66 -0.602,1.262 -1.118,1.806 -0.516,0.544 -1.19,1.032 -2.021,1.462 -0.832,0.431 -1.849,0.846 -3.053,1.247 -2.895,0.917 -4.974,2.007 -6.235,3.269 -1.262,1.261 -1.892,2.837 -1.892,4.729 0,1.061 0.215,2.043 0.645,2.946 0.43,0.903 1.046,1.691 1.849,2.365 0.802,0.673 1.748,1.196 2.838,1.569 1.089,0.372 2.307,0.56 3.655,0.56 1.548,0 2.867,-0.151 3.956,-0.452 1.089,-0.301 1.92,-0.638 2.494,-1.01 l -0.817,-1.764 c -0.402,0.286 -1.097,0.609 -2.085,0.968 -0.989,0.358 -2.201,0.537 -3.634,0.537 -1.29,0 -2.372,-0.172 -3.246,-0.515 -0.875,-0.345 -1.577,-0.789 -2.107,-1.333 -0.531,-0.545 -0.911,-1.133 -1.14,-1.763 -0.23,-0.631 -0.344,-1.233 -0.344,-1.807 0,-1.548 0.502,-2.809 1.505,-3.783 1.003,-0.976 2.68,-1.835 5.031,-2.58 1.319,-0.431 2.487,-0.897 3.505,-1.398 1.017,-0.502 1.87,-1.082 2.558,-1.742 C -0.817,7.618 -0.301,6.858 0.043,5.999 0.387,5.138 0.559,4.121 0.559,2.945 0.559,1.941 0.373,0.96 0,0"
       style="fill:#f47216;fill-opacity:1;fill-rule:nonzero;stroke:#f47216;stroke-width:2;stroke-linecap:butt;stroke-linejoin:miter;stroke-miterlimit:10;stroke-dasharray:none;stroke-opacity:1"
       transform="matrix(1.3333333,0,0,-1.3333333,295.69467,81.632533)" />
    <path
       id="path49"
       d="m 226.758,102.568 h 10.32 v -1.849 h -10.32 z"
       style="fill:#f47216;fill-opacity:1;fill-rule:nonzero;stroke:#f47216;stroke-width:2;stroke-linecap:butt;stroke-linejoin:miter;stroke-miterlimit:10;stroke-dasharray:none;stroke-opacity:1"
       transform="matrix(1.3333333,0,0,-1.3333333,0,207.06667)" />
    <path
       id="path50"
       d="m 0,0 c -0.574,1.505 -1.469,2.809 -2.688,3.913 -1.218,1.103 -2.78,1.97 -4.686,2.601 -1.907,0.631 -4.179,0.946 -6.816,0.946 -1.405,0 -2.638,-0.057 -3.698,-0.172 -1.061,-0.115 -1.964,-0.244 -2.709,-0.387 v -25.155 c 0.688,-0.115 1.527,-0.187 2.516,-0.215 0.989,-0.029 2.07,-0.043 3.246,-0.043 2.752,0 5.117,0.359 7.095,1.075 1.978,0.717 3.598,1.684 4.859,2.903 1.261,1.218 2.2,2.651 2.817,4.3 0.616,1.648 0.924,3.418 0.924,5.31 C 0.86,-3.146 0.573,-1.505 0,0 m 2.15,-10.191 c -0.573,-1.878 -1.62,-3.634 -3.139,-5.268 -1.404,-1.491 -3.304,-2.666 -5.697,-3.525 -2.394,-0.861 -5.225,-1.291 -8.493,-1.291 -1.318,0 -2.587,0.015 -3.805,0.043 -1.219,0.029 -2.459,0.101 -3.72,0.215 V 8.579 c 1.291,0.171 2.651,0.322 4.085,0.451 1.433,0.129 2.967,0.194 4.601,0.194 3.096,0 5.784,-0.402 8.063,-1.204 C -3.676,7.216 -1.849,6.07 -0.473,4.579 0.732,3.261 1.613,1.828 2.172,0.279 2.73,-1.269 3.01,-2.989 3.01,-4.88 c 0,-1.664 -0.287,-3.434 -0.86,-5.311"
       style="fill:#f47216;fill-opacity:1;fill-rule:nonzero;stroke:none"
       transform="matrix(1.3333333,0,0,-1.3333333,354.4596,61.049733)" />
    <path
       id="path51"
       d="m 0,0 c -0.574,1.505 -1.469,2.809 -2.688,3.913 -1.218,1.103 -2.78,1.97 -4.686,2.601 -1.907,0.631 -4.179,0.946 -6.816,0.946 -1.405,0 -2.638,-0.057 -3.698,-0.172 -1.061,-0.115 -1.964,-0.244 -2.709,-0.387 v -25.155 c 0.688,-0.115 1.527,-0.187 2.516,-0.215 0.989,-0.029 2.07,-0.043 3.246,-0.043 2.752,0 5.117,0.359 7.095,1.075 1.978,0.717 3.598,1.684 4.859,2.903 1.261,1.218 2.2,2.651 2.817,4.3 0.616,1.648 0.924,3.418 0.924,5.31 C 0.86,-3.146 0.573,-1.505 0,0 Z m 2.15,-10.191 c -0.573,-1.878 -1.62,-3.634 -3.139,-5.268 -1.404,-1.491 -3.304,-2.666 -5.697,-3.525 -2.394,-0.861 -5.225,-1.291 -8.493,-1.291 -1.318,0 -2.587,0.015 -3.805,0.043 -1.219,0.029 -2.459,0.101 -3.72,0.215 V 8.579 c 1.291,0.171 2.651,0.322 4.085,0.451 1.433,0.129 2.967,0.194 4.601,0.194 3.096,0 5.784,-0.402 8.063,-1.204 C -3.676,7.216 -1.849,6.07 -0.473,4.579 0.732,3.261 1.613,1.828 2.172,0.279 2.73,-1.269 3.01,-2.989 3.01,-4.88 c 0,-1.664 -0.287,-3.434 -0.86,-5.311 z"
       style="fill:none;stroke:#f47216;stroke-width:2;stroke-linecap:butt;stroke-linejoin:miter;stroke-miterlimit:10;stroke-dasharray:none;stroke-opacity:1"
       transform="matrix(1.3333333,0,0,-1.3333333,354.4596,61.049733)" />
    <path
       id="path52"
       d="m 0,0 c -0.617,-1.649 -1.448,-2.989 -2.494,-4.02 -1.046,-1.033 -2.257,-1.785 -3.633,-2.258 -1.376,-0.473 -2.838,-0.71 -4.386,-0.71 -1.405,0 -2.753,0.223 -4.042,0.667 -1.29,0.444 -2.43,1.161 -3.419,2.15 -0.989,0.989 -1.777,2.293 -2.365,3.913 -0.588,1.619 -0.881,3.618 -0.881,5.998 v 16.77 h 2.107 V 5.783 c 0,-1.978 0.229,-3.662 0.688,-5.052 0.458,-1.391 1.081,-2.523 1.87,-3.397 0.788,-0.875 1.713,-1.52 2.774,-1.935 1.06,-0.416 2.193,-0.624 3.397,-0.624 1.347,0 2.58,0.215 3.698,0.645 1.118,0.43 2.085,1.097 2.902,2 0.817,0.903 1.455,2.042 1.913,3.418 0.459,1.376 0.688,3.024 0.688,4.945 V 22.51 H 0.925 V 5.955 C 0.925,3.633 0.616,1.648 0,0"
       style="fill:#f47216;fill-opacity:1;fill-rule:nonzero;stroke:#f47216;stroke-width:2;stroke-linecap:butt;stroke-linejoin:miter;stroke-miterlimit:10;stroke-dasharray:none;stroke-opacity:1"
       transform="matrix(1.3333333,0,0,-1.3333333,395.3092,79.109733)" />
    <path
       id="path53"
       d="m 303.47,102.568 h 10.32 v -1.849 h -10.32 z"
       style="fill:#f47216;fill-opacity:1;fill-rule:nonzero;stroke:#f47216;stroke-width:2;stroke-linecap:butt;stroke-linejoin:miter;stroke-miterlimit:10;stroke-dasharray:none;stroke-opacity:1"
       transform="matrix(1.3333333,0,0,-1.3333333,0,207.06667)" />
    <path
       id="path54"
       d="m 0,0 -0.903,14.104 c -0.058,1.061 -0.129,2.193 -0.215,3.397 -0.086,1.204 -0.165,2.387 -0.236,3.548 -0.072,1.161 -0.129,2.264 -0.172,3.311 -0.043,1.046 -0.065,1.956 -0.065,2.73 H -1.677 C -2.251,25.542 -2.889,23.901 -3.59,22.167 -4.294,20.432 -5.103,18.461 -6.02,16.254 L -12.728,0.43 h -1.591 l -6.278,15.609 c -0.918,2.264 -1.706,4.285 -2.365,6.063 -0.66,1.777 -1.233,3.44 -1.72,4.988 h -0.086 c -0.029,-0.832 -0.065,-1.778 -0.108,-2.838 -0.043,-1.061 -0.101,-2.171 -0.171,-3.333 -0.073,-1.16 -0.144,-2.357 -0.216,-3.59 -0.072,-1.233 -0.15,-2.451 -0.236,-3.655 L -26.531,0 l -2.064,0.43 2.322,28.982 h 2.408 l 6.966,-17.286 c 1.433,-3.555 2.58,-6.637 3.44,-9.245 h 0.086 c 0.401,1.232 0.888,2.594 1.462,4.085 0.573,1.49 1.275,3.196 2.107,5.117 l 7.31,17.329 H 0 L 2.064,0.43 Z"
       style="fill:#f47216;fill-opacity:1;fill-rule:nonzero;stroke:#f47216;stroke-width:2;stroke-linecap:butt;stroke-linejoin:miter;stroke-miterlimit:10;stroke-dasharray:none;stroke-opacity:1"
       transform="matrix(1.3333333,0,0,-1.3333333,463.392,88.312133)" />
    <path
       id="path55"
       d="m 356.273,118.478 h 2.107 V 89.496 h -2.107 z"
       style="fill:#f47216;fill-opacity:1;fill-rule:nonzero;stroke:#f47216;stroke-width:2;stroke-linecap:butt;stroke-linejoin:miter;stroke-miterlimit:10;stroke-dasharray:none;stroke-opacity:1"
       transform="matrix(1.3333333,0,0,-1.3333333,0,207.06667)" />
    <path
       id="path56"
       d="m 0,0 c -0.574,1.505 -1.469,2.809 -2.688,3.913 -1.218,1.103 -2.78,1.97 -4.687,2.601 -1.906,0.631 -4.178,0.946 -6.815,0.946 -1.405,0 -2.638,-0.057 -3.698,-0.172 -1.061,-0.115 -1.964,-0.244 -2.709,-0.387 v -25.155 c 0.688,-0.115 1.527,-0.187 2.516,-0.215 0.989,-0.029 2.07,-0.043 3.246,-0.043 2.752,0 5.117,0.359 7.095,1.075 1.978,0.717 3.597,1.684 4.859,2.903 1.261,1.218 2.2,2.651 2.817,4.3 0.616,1.648 0.924,3.418 0.924,5.31 C 0.86,-3.146 0.573,-1.505 0,0 m 2.15,-10.191 c -0.573,-1.878 -1.62,-3.634 -3.139,-5.268 -1.405,-1.491 -3.304,-2.666 -5.698,-3.525 -2.393,-0.861 -5.224,-1.291 -8.492,-1.291 -1.319,0 -2.587,0.015 -3.805,0.043 -1.219,0.029 -2.459,0.101 -3.72,0.215 V 8.579 c 1.29,0.171 2.651,0.322 4.085,0.451 1.433,0.129 2.967,0.194 4.601,0.194 3.096,0 5.784,-0.402 8.063,-1.204 C -3.676,7.216 -1.849,6.07 -0.473,4.579 0.731,3.261 1.613,1.828 2.172,0.279 2.73,-1.269 3.01,-2.989 3.01,-4.88 c 0,-1.664 -0.287,-3.434 -0.86,-5.311"
       style="fill:#f47216;fill-opacity:1;fill-rule:nonzero;stroke:none"
       transform="matrix(1.3333333,0,0,-1.3333333,516.99813,61.049733)" />
    <path
       id="path57"
       d="m 0,0 c -0.574,1.505 -1.469,2.809 -2.688,3.913 -1.218,1.103 -2.78,1.97 -4.687,2.601 -1.906,0.631 -4.178,0.946 -6.815,0.946 -1.405,0 -2.638,-0.057 -3.698,-0.172 -1.061,-0.115 -1.964,-0.244 -2.709,-0.387 v -25.155 c 0.688,-0.115 1.527,-0.187 2.516,-0.215 0.989,-0.029 2.07,-0.043 3.246,-0.043 2.752,0 5.117,0.359 7.095,1.075 1.978,0.717 3.597,1.684 4.859,2.903 1.261,1.218 2.2,2.651 2.817,4.3 0.616,1.648 0.924,3.418 0.924,5.31 C 0.86,-3.146 0.573,-1.505 0,0 Z m 2.15,-10.191 c -0.573,-1.878 -1.62,-3.634 -3.139,-5.268 -1.405,-1.491 -3.304,-2.666 -5.698,-3.525 -2.393,-0.861 -5.224,-1.291 -8.492,-1.291 -1.319,0 -2.587,0.015 -3.805,0.043 -1.219,0.029 -2.459,0.101 -3.72,0.215 V 8.579 c 1.29,0.171 2.651,0.322 4.085,0.451 1.433,0.129 2.967,0.194 4.601,0.194 3.096,0 5.784,-0.402 8.063,-1.204 C -3.676,7.216 -1.849,6.07 -0.473,4.579 0.731,3.261 1.613,1.828 2.172,0.279 2.73,-1.269 3.01,-2.989 3.01,-4.88 c 0,-1.664 -0.287,-3.434 -0.86,-5.311 z"
       style="fill:none;stroke:#f47216;stroke-width:2;stroke-linecap:butt;stroke-linejoin:miter;stroke-miterlimit:10;stroke-dasharray:none;stroke-opacity:1"
       transform="matrix(1.3333333,0,0,-1.3333333,516.99813,61.049733)" />
    <path
       id="path58"
       d="m 397.166,118.478 h 2.107 V 89.496 h -2.107 z"
       style="fill:#f47216;fill-opacity:1;fill-rule:nonzero;stroke:#f47216;stroke-width:2;stroke-linecap:butt;stroke-linejoin:miter;stroke-miterlimit:10;stroke-dasharray:none;stroke-opacity:1"
       transform="matrix(1.3333333,0,0,-1.3333333,0,207.06667)" />
    <path
       id="path59"
       d="m 0,0 c -0.488,0.817 -1.14,1.483 -1.956,1.999 -0.818,0.517 -1.771,0.896 -2.86,1.14 -1.09,0.243 -2.251,0.366 -3.483,0.366 h -4.343 V -9.18 c 0.487,-0.115 1.075,-0.187 1.763,-0.216 0.688,-0.028 1.462,-0.043 2.322,-0.043 1.146,0 2.271,0.093 3.375,0.28 1.103,0.186 2.093,0.53 2.967,1.032 0.874,0.501 1.584,1.168 2.129,2 0.544,0.831 0.817,1.892 0.817,3.182 C 0.731,-1.799 0.487,-0.817 0,0 m -1.075,13.653 c -0.43,0.716 -1.004,1.29 -1.72,1.72 -0.717,0.43 -1.563,0.731 -2.537,0.903 -0.975,0.172 -1.993,0.258 -3.053,0.258 -1.147,0 -2.05,-0.036 -2.709,-0.108 -0.66,-0.072 -1.176,-0.15 -1.548,-0.237 V 5.225 h 5.074 c 1.146,0 2.164,0.15 3.053,0.451 0.888,0.301 1.634,0.71 2.236,1.226 0.602,0.515 1.06,1.118 1.376,1.805 0.315,0.688 0.473,1.419 0.473,2.194 0,1.118 -0.215,2.035 -0.645,2.752 M 2.322,-5.999 C 1.92,-6.887 1.39,-7.661 0.731,-8.32 c -1.004,-1.004 -2.337,-1.735 -3.999,-2.193 -1.663,-0.459 -3.67,-0.688 -6.02,-0.688 -1.118,0 -2.144,0.029 -3.075,0.086 -0.931,0.057 -1.727,0.114 -2.386,0.172 v 28.595 c 0.888,0.2 1.892,0.358 3.01,0.472 1.118,0.115 2.279,0.173 3.483,0.173 1.978,0 3.618,-0.209 4.924,-0.624 1.303,-0.416 2.386,-1.053 3.246,-1.913 C 1.118,14.556 1.72,12.965 1.72,10.987 1.72,10.27 1.591,9.574 1.333,8.901 1.075,8.227 0.716,7.611 0.258,7.052 -0.201,6.493 -0.746,5.999 -1.376,5.569 -2.007,5.139 -2.681,4.794 -3.397,4.537 V 4.408 C -2.881,4.293 -2.258,4.085 -1.527,3.784 -0.796,3.483 -0.101,3.039 0.559,2.451 1.218,1.863 1.777,1.14 2.236,0.28 c 0.458,-0.861 0.688,-1.907 0.688,-3.139 0,-1.205 -0.201,-2.251 -0.602,-3.14"
       style="fill:#f47216;fill-opacity:1;fill-rule:nonzero;stroke:none"
       transform="matrix(1.3333333,0,0,-1.3333333,578.51693,73.147467)" />
    <path
       id="path60"
       d="m 0,0 c -0.488,0.817 -1.14,1.483 -1.956,1.999 -0.818,0.517 -1.771,0.896 -2.86,1.14 -1.09,0.243 -2.251,0.366 -3.483,0.366 h -4.343 V -9.18 c 0.487,-0.115 1.075,-0.187 1.763,-0.216 0.688,-0.028 1.462,-0.043 2.322,-0.043 1.146,0 2.271,0.093 3.375,0.28 1.103,0.186 2.093,0.53 2.967,1.032 0.874,0.501 1.584,1.168 2.129,2 0.544,0.831 0.817,1.892 0.817,3.182 C 0.731,-1.799 0.487,-0.817 0,0 Z m -1.075,13.653 c -0.43,0.716 -1.004,1.29 -1.72,1.72 -0.717,0.43 -1.563,0.731 -2.537,0.903 -0.975,0.172 -1.993,0.258 -3.053,0.258 -1.147,0 -2.05,-0.036 -2.709,-0.108 -0.66,-0.072 -1.176,-0.15 -1.548,-0.237 V 5.225 h 5.074 c 1.146,0 2.164,0.15 3.053,0.451 0.888,0.301 1.634,0.71 2.236,1.226 0.602,0.515 1.06,1.118 1.376,1.805 0.315,0.688 0.473,1.419 0.473,2.194 0,1.118 -0.215,2.035 -0.645,2.752 z M 2.322,-5.999 C 1.92,-6.887 1.39,-7.661 0.731,-8.32 c -1.004,-1.004 -2.337,-1.735 -3.999,-2.193 -1.663,-0.459 -3.67,-0.688 -6.02,-0.688 -1.118,0 -2.144,0.029 -3.075,0.086 -0.931,0.057 -1.727,0.114 -2.386,0.172 v 28.595 c 0.888,0.2 1.892,0.358 3.01,0.472 1.118,0.115 2.279,0.173 3.483,0.173 1.978,0 3.618,-0.209 4.924,-0.624 1.303,-0.416 2.386,-1.053 3.246,-1.913 C 1.118,14.556 1.72,12.965 1.72,10.987 1.72,10.27 1.591,9.574 1.333,8.901 1.075,8.227 0.716,7.611 0.258,7.052 -0.201,6.493 -0.746,5.999 -1.376,5.569 -2.007,5.139 -2.681,4.794 -3.397,4.537 V 4.408 C -2.881,4.293 -2.258,4.085 -1.527,3.784 -0.796,3.483 -0.101,3.039 0.559,2.451 1.218,1.863 1.777,1.14 2.236,0.28 c 0.458,-0.861 0.688,-1.907 0.688,-3.139 0,-1.205 -0.201,-2.251 -0.602,-3.14 z"
       style="fill:none;stroke:#f47216;stroke-width:2;stroke-linecap:butt;stroke-linejoin:miter;stroke-miterlimit:10;stroke-dasharray:none;stroke-opacity:1"
       transform="matrix(1.3333333,0,0,-1.3333333,578.51693,73.147467)" />
    <path
       id="path61"
       d="M 0,0 V 28.982 H 14.878 V 27.219 H 2.107 V 16.168 h 12.9 V 14.405 H 2.107 V 1.763 H 17.329 V 0 Z"
       style="fill:#f47216;fill-opacity:1;fill-rule:nonzero;stroke:#f47216;stroke-width:2;stroke-linecap:butt;stroke-linejoin:miter;stroke-miterlimit:10;stroke-dasharray:none;stroke-opacity:1"
       transform="matrix(1.3333333,0,0,-1.3333333,591.58787,87.738533)" />
    <path
       id="path62"
       d="m 0,0 -4.816,6.837 c -1.09,1.548 -1.972,2.802 -2.644,3.763 -0.675,0.959 -1.269,1.827 -1.785,2.601 h -0.086 c -0.258,-0.402 -0.516,-0.81 -0.774,-1.226 -0.258,-0.416 -0.552,-0.867 -0.882,-1.354 -0.329,-0.488 -0.702,-1.047 -1.117,-1.677 -0.417,-0.631 -0.897,-1.348 -1.441,-2.15 L -18.06,0 h -2.494 l 10.148,14.663 -9.718,14.319 h 2.494 l 5.16,-7.826 c 0.716,-1.09 1.34,-2.036 1.87,-2.838 0.531,-0.803 1.025,-1.548 1.484,-2.236 h 0.086 c 0.487,0.745 1.003,1.497 1.548,2.257 0.544,0.76 1.189,1.684 1.935,2.774 l 5.504,7.869 H 2.494 L -7.912,14.792 2.494,0 Z"
       style="fill:#f47216;fill-opacity:1;fill-rule:nonzero;stroke:#f47216;stroke-width:2;stroke-linecap:butt;stroke-linejoin:miter;stroke-miterlimit:10;stroke-dasharray:none;stroke-opacity:1"
       transform="matrix(1.3333333,0,0,-1.3333333,646.3984,87.738533)" />
  </g>
</svg>
